<mxfile host="65bd71144e">
    <diagram id="QgQacfpI_JVOYlVdh4ZV" name="Base Authen">
        <mxGraphModel dx="2246" dy="1362" grid="0" gridSize="10" guides="1" tooltips="1" connect="1" arrows="1" fold="1" page="0" pageScale="1" pageWidth="850" pageHeight="1100" background="none" math="0" shadow="0">
            <root>
                <mxCell id="0"/>
                <mxCell id="1" parent="0"/>
                <mxCell id="pZgkCZNhYmgYI2_gVV7H-137" value="Alt" style="shape=umlFrame;whiteSpace=wrap;html=1;width=44;height=25;boundedLbl=1;verticalAlign=middle;align=left;spacingLeft=5;" parent="1" vertex="1">
                    <mxGeometry x="141" y="1266" width="942" height="364" as="geometry"/>
                </mxCell>
                <mxCell id="pZgkCZNhYmgYI2_gVV7H-132" value="Alt" style="shape=umlFrame;whiteSpace=wrap;html=1;width=44;height=25;boundedLbl=1;verticalAlign=middle;align=left;spacingLeft=5;" parent="1" vertex="1">
                    <mxGeometry x="141" y="692" width="942" height="552" as="geometry"/>
                </mxCell>
                <mxCell id="pZgkCZNhYmgYI2_gVV7H-2" value="Campground Authentication" style="shape=umlFrame;whiteSpace=wrap;html=1;width=120;height=30;boundedLbl=1;verticalAlign=middle;align=left;spacingLeft=5;" parent="1" vertex="1">
                    <mxGeometry x="119" y="90" width="989" height="1646" as="geometry"/>
                </mxCell>
                <mxCell id="pZgkCZNhYmgYI2_gVV7H-109" value="Alt" style="shape=umlFrame;whiteSpace=wrap;html=1;width=44;height=25;boundedLbl=1;verticalAlign=middle;align=left;spacingLeft=5;" parent="1" vertex="1">
                    <mxGeometry x="160" y="1382" width="895" height="221" as="geometry"/>
                </mxCell>
                <mxCell id="pZgkCZNhYmgYI2_gVV7H-73" value="Alt" style="shape=umlFrame;whiteSpace=wrap;html=1;width=44;height=25;boundedLbl=1;verticalAlign=middle;align=left;spacingLeft=5;" parent="1" vertex="1">
                    <mxGeometry x="162" y="877" width="895" height="348" as="geometry"/>
                </mxCell>
                <mxCell id="pZgkCZNhYmgYI2_gVV7H-95" value="Alt" style="shape=umlFrame;whiteSpace=wrap;html=1;width=44;height=25;boundedLbl=1;verticalAlign=middle;align=left;spacingLeft=5;" parent="1" vertex="1">
                    <mxGeometry x="184" y="986" width="847" height="162" as="geometry"/>
                </mxCell>
                <mxCell id="pZgkCZNhYmgYI2_gVV7H-99" value="" style="endArrow=none;startArrow=none;endFill=0;startFill=0;endSize=8;html=1;verticalAlign=bottom;dashed=1;labelBackgroundColor=none;dashPattern=10 10;" parent="1" edge="1">
                    <mxGeometry width="160" relative="1" as="geometry">
                        <mxPoint x="193.5" y="1084" as="sourcePoint"/>
                        <mxPoint x="1021.5" y="1084" as="targetPoint"/>
                    </mxGeometry>
                </mxCell>
                <mxCell id="pZgkCZNhYmgYI2_gVV7H-41" value="Alt" style="shape=umlFrame;whiteSpace=wrap;html=1;width=44;height=25;boundedLbl=1;verticalAlign=middle;align=left;spacingLeft=5;" parent="1" vertex="1">
                    <mxGeometry x="162" y="424" width="895" height="211" as="geometry"/>
                </mxCell>
                <mxCell id="pZgkCZNhYmgYI2_gVV7H-5" value="Alt" style="shape=umlFrame;whiteSpace=wrap;html=1;width=44;height=25;boundedLbl=1;verticalAlign=middle;align=left;spacingLeft=5;" parent="1" vertex="1">
                    <mxGeometry x="141" y="242" width="942" height="417" as="geometry"/>
                </mxCell>
                <mxCell id="pZgkCZNhYmgYI2_gVV7H-8" value="&amp;lt;&amp;lt;javaScript&amp;gt;&amp;gt;&lt;br&gt;:server" style="shape=umlLifeline;perimeter=lifelinePerimeter;whiteSpace=wrap;html=1;container=1;collapsible=0;recursiveResize=0;outlineConnect=0;" parent="1" vertex="1">
                    <mxGeometry x="248" y="151" width="102" height="1534" as="geometry"/>
                </mxCell>
                <mxCell id="pZgkCZNhYmgYI2_gVV7H-18" value="" style="html=1;points=[];perimeter=orthogonalPerimeter;fillColor=#808080;" parent="pZgkCZNhYmgYI2_gVV7H-8" vertex="1">
                    <mxGeometry x="45" y="126" width="10" height="61" as="geometry"/>
                </mxCell>
                <mxCell id="pZgkCZNhYmgYI2_gVV7H-74" value="" style="html=1;points=[];perimeter=orthogonalPerimeter;fillColor=#808080;" parent="pZgkCZNhYmgYI2_gVV7H-8" vertex="1">
                    <mxGeometry x="45" y="579" width="10" height="61" as="geometry"/>
                </mxCell>
                <mxCell id="pZgkCZNhYmgYI2_gVV7H-90" value="" style="endArrow=none;startArrow=none;endFill=0;startFill=0;endSize=8;html=1;verticalAlign=bottom;dashed=1;labelBackgroundColor=none;dashPattern=10 10;" parent="pZgkCZNhYmgYI2_gVV7H-8" edge="1">
                    <mxGeometry width="160" relative="1" as="geometry">
                        <mxPoint x="-85" y="1016" as="sourcePoint"/>
                        <mxPoint x="798" y="1016" as="targetPoint"/>
                    </mxGeometry>
                </mxCell>
                <mxCell id="pZgkCZNhYmgYI2_gVV7H-103" value="" style="html=1;points=[];perimeter=orthogonalPerimeter;fillColor=#808080;" parent="pZgkCZNhYmgYI2_gVV7H-8" vertex="1">
                    <mxGeometry x="46" y="1145" width="10" height="61" as="geometry"/>
                </mxCell>
                <mxCell id="pZgkCZNhYmgYI2_gVV7H-10" value="&amp;lt;&amp;lt;router&amp;gt;&amp;gt;&lt;br&gt;:auth" style="shape=umlLifeline;perimeter=lifelinePerimeter;whiteSpace=wrap;html=1;container=1;collapsible=0;recursiveResize=0;outlineConnect=0;" parent="1" vertex="1">
                    <mxGeometry x="411" y="151" width="102" height="1537" as="geometry"/>
                </mxCell>
                <mxCell id="pZgkCZNhYmgYI2_gVV7H-19" value="" style="html=1;points=[];perimeter=orthogonalPerimeter;fillColor=#808080;" parent="pZgkCZNhYmgYI2_gVV7H-10" vertex="1">
                    <mxGeometry x="45" y="147" width="10" height="52" as="geometry"/>
                </mxCell>
                <mxCell id="pZgkCZNhYmgYI2_gVV7H-50" value="response 400" style="html=1;verticalAlign=bottom;labelBackgroundColor=none;endArrow=none;endFill=0;dashed=1;startArrow=block;startFill=0;entryX=-0.079;entryY=0.969;entryDx=0;entryDy=0;entryPerimeter=0;" parent="pZgkCZNhYmgYI2_gVV7H-10" target="pZgkCZNhYmgYI2_gVV7H-26" edge="1">
                    <mxGeometry width="160" relative="1" as="geometry">
                        <mxPoint x="-205.00333333333356" y="436" as="sourcePoint"/>
                        <mxPoint x="298" y="436" as="targetPoint"/>
                    </mxGeometry>
                </mxCell>
                <mxCell id="pZgkCZNhYmgYI2_gVV7H-75" value="" style="html=1;points=[];perimeter=orthogonalPerimeter;fillColor=#808080;" parent="pZgkCZNhYmgYI2_gVV7H-10" vertex="1">
                    <mxGeometry x="45" y="600" width="10" height="52" as="geometry"/>
                </mxCell>
                <mxCell id="pZgkCZNhYmgYI2_gVV7H-104" value="" style="html=1;points=[];perimeter=orthogonalPerimeter;fillColor=#808080;" parent="pZgkCZNhYmgYI2_gVV7H-10" vertex="1">
                    <mxGeometry x="46" y="1166" width="10" height="52" as="geometry"/>
                </mxCell>
                <mxCell id="pZgkCZNhYmgYI2_gVV7H-12" value="&amp;lt;&amp;lt;middleware&amp;gt;&amp;gt;&lt;br&gt;:auth" style="shape=umlLifeline;perimeter=lifelinePerimeter;whiteSpace=wrap;html=1;container=1;collapsible=0;recursiveResize=0;outlineConnect=0;" parent="1" vertex="1">
                    <mxGeometry x="538" y="151" width="112" height="1536" as="geometry"/>
                </mxCell>
                <mxCell id="pZgkCZNhYmgYI2_gVV7H-100" value="response 200, token" style="html=1;verticalAlign=bottom;labelBackgroundColor=none;endArrow=none;endFill=0;dashed=1;startArrow=block;startFill=0;" parent="pZgkCZNhYmgYI2_gVV7H-12" edge="1">
                    <mxGeometry width="160" relative="1" as="geometry">
                        <mxPoint x="-328.0033333333338" y="914.9999999999998" as="sourcePoint"/>
                        <mxPoint x="175" y="914.9999999999998" as="targetPoint"/>
                    </mxGeometry>
                </mxCell>
                <mxCell id="pZgkCZNhYmgYI2_gVV7H-108" value="" style="html=1;points=[];perimeter=orthogonalPerimeter;fillColor=#808080;" parent="pZgkCZNhYmgYI2_gVV7H-12" vertex="1">
                    <mxGeometry x="51" y="1185" width="10" height="248" as="geometry"/>
                </mxCell>
                <mxCell id="pZgkCZNhYmgYI2_gVV7H-20" value="&amp;lt;&amp;lt;controller&amp;gt;&amp;gt;&lt;br&gt;:auth" style="shape=umlLifeline;perimeter=lifelinePerimeter;whiteSpace=wrap;html=1;container=1;collapsible=0;recursiveResize=0;outlineConnect=0;" parent="1" vertex="1">
                    <mxGeometry x="664" y="151" width="112" height="1535" as="geometry"/>
                </mxCell>
                <mxCell id="pZgkCZNhYmgYI2_gVV7H-26" value="" style="html=1;points=[];perimeter=orthogonalPerimeter;fillColor=#808080;" parent="pZgkCZNhYmgYI2_gVV7H-20" vertex="1">
                    <mxGeometry x="51" y="166" width="10" height="279" as="geometry"/>
                </mxCell>
                <mxCell id="pZgkCZNhYmgYI2_gVV7H-77" value="" style="html=1;points=[];perimeter=orthogonalPerimeter;fillColor=#808080;" parent="pZgkCZNhYmgYI2_gVV7H-20" vertex="1">
                    <mxGeometry x="51" y="619" width="10" height="435" as="geometry"/>
                </mxCell>
                <mxCell id="pZgkCZNhYmgYI2_gVV7H-113" value="" style="html=1;points=[];perimeter=orthogonalPerimeter;fillColor=#808080;" parent="pZgkCZNhYmgYI2_gVV7H-20" vertex="1">
                    <mxGeometry x="51" y="1250" width="10" height="102" as="geometry"/>
                </mxCell>
                <mxCell id="pZgkCZNhYmgYI2_gVV7H-22" value="&amp;lt;&amp;lt;model&amp;gt;&amp;gt;&lt;br&gt;:User" style="shape=umlLifeline;perimeter=lifelinePerimeter;whiteSpace=wrap;html=1;container=1;collapsible=0;recursiveResize=0;outlineConnect=0;" parent="1" vertex="1">
                    <mxGeometry x="812" y="151" width="112" height="1555" as="geometry"/>
                </mxCell>
                <mxCell id="pZgkCZNhYmgYI2_gVV7H-32" value="" style="html=1;points=[];perimeter=orthogonalPerimeter;fillColor=#808080;" parent="pZgkCZNhYmgYI2_gVV7H-22" vertex="1">
                    <mxGeometry x="51" y="185" width="10" height="76" as="geometry"/>
                </mxCell>
                <mxCell id="pZgkCZNhYmgYI2_gVV7H-37" value="user" style="html=1;verticalAlign=bottom;labelBackgroundColor=none;endArrow=none;endFill=0;exitX=0.922;exitY=0.317;exitDx=0;exitDy=0;exitPerimeter=0;dashed=1;startArrow=block;startFill=0;" parent="pZgkCZNhYmgYI2_gVV7H-22" edge="1">
                    <mxGeometry width="160" relative="1" as="geometry">
                        <mxPoint x="61" y="234.995" as="sourcePoint"/>
                        <mxPoint x="182.77999999999997" y="235.22000000000003" as="targetPoint"/>
                    </mxGeometry>
                </mxCell>
                <mxCell id="pZgkCZNhYmgYI2_gVV7H-42" value="" style="html=1;points=[];perimeter=orthogonalPerimeter;fillColor=#808080;" parent="pZgkCZNhYmgYI2_gVV7H-22" vertex="1">
                    <mxGeometry x="51" y="304" width="10" height="55" as="geometry"/>
                </mxCell>
                <mxCell id="pZgkCZNhYmgYI2_gVV7H-78" value="" style="html=1;points=[];perimeter=orthogonalPerimeter;fillColor=#808080;" parent="pZgkCZNhYmgYI2_gVV7H-22" vertex="1">
                    <mxGeometry x="51" y="638" width="10" height="76" as="geometry"/>
                </mxCell>
                <mxCell id="pZgkCZNhYmgYI2_gVV7H-80" value="" style="html=1;points=[];perimeter=orthogonalPerimeter;fillColor=#808080;" parent="pZgkCZNhYmgYI2_gVV7H-22" vertex="1">
                    <mxGeometry x="51" y="757" width="10" height="55" as="geometry"/>
                </mxCell>
                <mxCell id="pZgkCZNhYmgYI2_gVV7H-94" value="user" style="html=1;verticalAlign=bottom;labelBackgroundColor=none;endArrow=none;endFill=0;exitX=0.922;exitY=0.317;exitDx=0;exitDy=0;exitPerimeter=0;dashed=1;startArrow=block;startFill=0;" parent="pZgkCZNhYmgYI2_gVV7H-22" edge="1">
                    <mxGeometry width="160" relative="1" as="geometry">
                        <mxPoint x="61" y="687.995" as="sourcePoint"/>
                        <mxPoint x="182.77999999999997" y="688.22" as="targetPoint"/>
                    </mxGeometry>
                </mxCell>
                <mxCell id="pZgkCZNhYmgYI2_gVV7H-96" value="" style="html=1;points=[];perimeter=orthogonalPerimeter;fillColor=#808080;" parent="pZgkCZNhYmgYI2_gVV7H-22" vertex="1">
                    <mxGeometry x="51" y="859" width="10" height="55" as="geometry"/>
                </mxCell>
                <mxCell id="pZgkCZNhYmgYI2_gVV7H-120" value="" style="html=1;points=[];perimeter=orthogonalPerimeter;fillColor=#808080;" parent="pZgkCZNhYmgYI2_gVV7H-22" vertex="1">
                    <mxGeometry x="51" y="1261" width="10" height="76" as="geometry"/>
                </mxCell>
                <mxCell id="pZgkCZNhYmgYI2_gVV7H-23" value="" style="shape=umlDestroy;dashed=0;" parent="pZgkCZNhYmgYI2_gVV7H-22" vertex="1">
                    <mxGeometry x="36" y="1521" width="40" height="40" as="geometry"/>
                </mxCell>
                <mxCell id="pZgkCZNhYmgYI2_gVV7H-24" value="&amp;lt;&amp;lt;mongoDB&amp;gt;&amp;gt;&lt;br&gt;:users" style="shape=umlLifeline;perimeter=lifelinePerimeter;whiteSpace=wrap;html=1;container=1;collapsible=0;recursiveResize=0;outlineConnect=0;" parent="1" vertex="1">
                    <mxGeometry x="944" y="151" width="112" height="1557" as="geometry"/>
                </mxCell>
                <mxCell id="pZgkCZNhYmgYI2_gVV7H-35" value="" style="html=1;points=[];perimeter=orthogonalPerimeter;fillColor=#808080;" parent="pZgkCZNhYmgYI2_gVV7H-24" vertex="1">
                    <mxGeometry x="51" y="196" width="10" height="55" as="geometry"/>
                </mxCell>
                <mxCell id="pZgkCZNhYmgYI2_gVV7H-81" value="" style="html=1;points=[];perimeter=orthogonalPerimeter;fillColor=#808080;" parent="pZgkCZNhYmgYI2_gVV7H-24" vertex="1">
                    <mxGeometry x="51" y="649" width="10" height="55" as="geometry"/>
                </mxCell>
                <mxCell id="pZgkCZNhYmgYI2_gVV7H-122" value="" style="html=1;points=[];perimeter=orthogonalPerimeter;fillColor=#808080;" parent="pZgkCZNhYmgYI2_gVV7H-24" vertex="1">
                    <mxGeometry x="51" y="1272" width="10" height="55" as="geometry"/>
                </mxCell>
                <mxCell id="pZgkCZNhYmgYI2_gVV7H-25" value="" style="shape=umlDestroy;dashed=0;" parent="pZgkCZNhYmgYI2_gVV7H-24" vertex="1">
                    <mxGeometry x="36" y="1517" width="40" height="40" as="geometry"/>
                </mxCell>
                <mxCell id="pZgkCZNhYmgYI2_gVV7H-29" value="req.post(&quot;/auth/register&quot;)" style="html=1;verticalAlign=bottom;labelBackgroundColor=none;endArrow=block;endFill=1;" parent="1" edge="1">
                    <mxGeometry width="160" relative="1" as="geometry">
                        <mxPoint x="156" y="297" as="sourcePoint"/>
                        <mxPoint x="292" y="297" as="targetPoint"/>
                    </mxGeometry>
                </mxCell>
                <mxCell id="pZgkCZNhYmgYI2_gVV7H-30" value="app.use(&quot;/api/v1/auth&quot;, auth)" style="html=1;verticalAlign=bottom;labelBackgroundColor=none;endArrow=block;endFill=1;exitX=0.957;exitY=0.63;exitDx=0;exitDy=0;exitPerimeter=0;" parent="1" source="pZgkCZNhYmgYI2_gVV7H-18" target="pZgkCZNhYmgYI2_gVV7H-19" edge="1">
                    <mxGeometry width="160" relative="1" as="geometry">
                        <mxPoint x="303" y="314" as="sourcePoint"/>
                        <mxPoint x="439" y="314" as="targetPoint"/>
                    </mxGeometry>
                </mxCell>
                <mxCell id="pZgkCZNhYmgYI2_gVV7H-31" value="register" style="html=1;verticalAlign=bottom;labelBackgroundColor=none;endArrow=block;endFill=1;exitX=1.114;exitY=0.61;exitDx=0;exitDy=0;exitPerimeter=0;" parent="1" source="pZgkCZNhYmgYI2_gVV7H-19" target="pZgkCZNhYmgYI2_gVV7H-26" edge="1">
                    <mxGeometry width="160" relative="1" as="geometry">
                        <mxPoint x="467" y="330" as="sourcePoint"/>
                        <mxPoint x="620" y="330" as="targetPoint"/>
                    </mxGeometry>
                </mxCell>
                <mxCell id="pZgkCZNhYmgYI2_gVV7H-33" value="create(name, email,&lt;br&gt;password, role, tel)" style="html=1;verticalAlign=bottom;labelBackgroundColor=none;endArrow=block;endFill=1;entryX=-0.121;entryY=0.179;entryDx=0;entryDy=0;entryPerimeter=0;" parent="1" source="pZgkCZNhYmgYI2_gVV7H-26" target="pZgkCZNhYmgYI2_gVV7H-32" edge="1">
                    <mxGeometry width="160" relative="1" as="geometry">
                        <mxPoint x="477.1400000000001" y="339.72000000000014" as="sourcePoint"/>
                        <mxPoint x="725" y="339.72000000000014" as="targetPoint"/>
                    </mxGeometry>
                </mxCell>
                <mxCell id="pZgkCZNhYmgYI2_gVV7H-36" value="UserSchema" style="html=1;verticalAlign=bottom;labelBackgroundColor=none;endArrow=block;endFill=1;exitX=0.922;exitY=0.317;exitDx=0;exitDy=0;exitPerimeter=0;" parent="1" source="pZgkCZNhYmgYI2_gVV7H-32" edge="1">
                    <mxGeometry width="160" relative="1" as="geometry">
                        <mxPoint x="868" y="360" as="sourcePoint"/>
                        <mxPoint x="994" y="360" as="targetPoint"/>
                    </mxGeometry>
                </mxCell>
                <mxCell id="pZgkCZNhYmgYI2_gVV7H-39" value="user" style="html=1;verticalAlign=bottom;labelBackgroundColor=none;endArrow=none;endFill=0;dashed=1;startArrow=block;startFill=0;entryX=-0.133;entryY=0.877;entryDx=0;entryDy=0;entryPerimeter=0;exitX=1.3;exitY=0.309;exitDx=0;exitDy=0;exitPerimeter=0;" parent="1" source="pZgkCZNhYmgYI2_gVV7H-26" target="pZgkCZNhYmgYI2_gVV7H-32" edge="1">
                    <mxGeometry width="160" relative="1" as="geometry">
                        <mxPoint x="727" y="405" as="sourcePoint"/>
                        <mxPoint x="858.7800000000002" y="401.23" as="targetPoint"/>
                    </mxGeometry>
                </mxCell>
                <mxCell id="pZgkCZNhYmgYI2_gVV7H-43" value="getSignJwtToken()" style="html=1;verticalAlign=bottom;labelBackgroundColor=none;endArrow=block;endFill=1;entryX=-0.121;entryY=0.179;entryDx=0;entryDy=0;entryPerimeter=0;" parent="1" edge="1">
                    <mxGeometry width="160" relative="1" as="geometry">
                        <mxPoint x="726" y="466.004" as="sourcePoint"/>
                        <mxPoint x="862.79" y="466.004" as="targetPoint"/>
                    </mxGeometry>
                </mxCell>
                <mxCell id="pZgkCZNhYmgYI2_gVV7H-44" value="token" style="html=1;verticalAlign=bottom;labelBackgroundColor=none;endArrow=none;endFill=0;dashed=1;startArrow=block;startFill=0;entryX=-0.133;entryY=0.877;entryDx=0;entryDy=0;entryPerimeter=0;exitX=0.9;exitY=0.375;exitDx=0;exitDy=0;exitPerimeter=0;" parent="1" edge="1">
                    <mxGeometry width="160" relative="1" as="geometry">
                        <mxPoint x="725" y="499" as="sourcePoint"/>
                        <mxPoint x="862.6700000000001" y="499.90200000000004" as="targetPoint"/>
                    </mxGeometry>
                </mxCell>
                <mxCell id="pZgkCZNhYmgYI2_gVV7H-45" value="" style="endArrow=none;startArrow=none;endFill=0;startFill=0;endSize=8;html=1;verticalAlign=bottom;dashed=1;labelBackgroundColor=none;dashPattern=10 10;" parent="1" edge="1">
                    <mxGeometry width="160" relative="1" as="geometry">
                        <mxPoint x="171" y="529" as="sourcePoint"/>
                        <mxPoint x="1047" y="529" as="targetPoint"/>
                    </mxGeometry>
                </mxCell>
                <mxCell id="pZgkCZNhYmgYI2_gVV7H-47" value="response 200, token" style="html=1;verticalAlign=bottom;labelBackgroundColor=none;endArrow=none;endFill=0;dashed=1;startArrow=block;startFill=0;" parent="1" edge="1">
                    <mxGeometry width="160" relative="1" as="geometry">
                        <mxPoint x="207.99666666666656" y="511" as="sourcePoint"/>
                        <mxPoint x="711" y="511" as="targetPoint"/>
                    </mxGeometry>
                </mxCell>
                <mxCell id="pZgkCZNhYmgYI2_gVV7H-48" value="[create user success]" style="text;html=1;strokeColor=none;fillColor=none;align=center;verticalAlign=middle;whiteSpace=wrap;rounded=0;" parent="1" vertex="1">
                    <mxGeometry x="213" y="450" width="121" height="30" as="geometry"/>
                </mxCell>
                <mxCell id="pZgkCZNhYmgYI2_gVV7H-49" value="[create user fail]" style="text;html=1;strokeColor=none;fillColor=none;align=center;verticalAlign=middle;whiteSpace=wrap;rounded=0;" parent="1" vertex="1">
                    <mxGeometry x="211" y="544" width="121" height="30" as="geometry"/>
                </mxCell>
                <mxCell id="pZgkCZNhYmgYI2_gVV7H-21" value="" style="shape=umlDestroy;dashed=0;" parent="1" vertex="1">
                    <mxGeometry x="700" y="1671" width="40" height="40" as="geometry"/>
                </mxCell>
                <mxCell id="pZgkCZNhYmgYI2_gVV7H-82" value="req.post(&quot;/auth/login&quot;)" style="html=1;verticalAlign=bottom;labelBackgroundColor=none;endArrow=block;endFill=1;" parent="1" edge="1">
                    <mxGeometry width="160" relative="1" as="geometry">
                        <mxPoint x="156" y="750" as="sourcePoint"/>
                        <mxPoint x="292.0000000000002" y="750" as="targetPoint"/>
                    </mxGeometry>
                </mxCell>
                <mxCell id="pZgkCZNhYmgYI2_gVV7H-83" value="app.use(&quot;/api/v1/auth&quot;, auth)" style="html=1;verticalAlign=bottom;labelBackgroundColor=none;endArrow=block;endFill=1;exitX=0.957;exitY=0.63;exitDx=0;exitDy=0;exitPerimeter=0;" parent="1" source="pZgkCZNhYmgYI2_gVV7H-74" target="pZgkCZNhYmgYI2_gVV7H-75" edge="1">
                    <mxGeometry width="160" relative="1" as="geometry">
                        <mxPoint x="303" y="767" as="sourcePoint"/>
                        <mxPoint x="439" y="767" as="targetPoint"/>
                    </mxGeometry>
                </mxCell>
                <mxCell id="pZgkCZNhYmgYI2_gVV7H-84" value="login" style="html=1;verticalAlign=bottom;labelBackgroundColor=none;endArrow=block;endFill=1;exitX=1.114;exitY=0.61;exitDx=0;exitDy=0;exitPerimeter=0;" parent="1" source="pZgkCZNhYmgYI2_gVV7H-75" target="pZgkCZNhYmgYI2_gVV7H-77" edge="1">
                    <mxGeometry width="160" relative="1" as="geometry">
                        <mxPoint x="467" y="783" as="sourcePoint"/>
                        <mxPoint x="620" y="783" as="targetPoint"/>
                    </mxGeometry>
                </mxCell>
                <mxCell id="pZgkCZNhYmgYI2_gVV7H-85" value="findOne(email)&lt;br&gt;.select(&quot;+password&quot;)" style="html=1;verticalAlign=bottom;labelBackgroundColor=none;endArrow=block;endFill=1;entryX=-0.121;entryY=0.179;entryDx=0;entryDy=0;entryPerimeter=0;" parent="1" source="pZgkCZNhYmgYI2_gVV7H-77" target="pZgkCZNhYmgYI2_gVV7H-78" edge="1">
                    <mxGeometry width="160" relative="1" as="geometry">
                        <mxPoint x="477.1400000000001" y="792.7200000000001" as="sourcePoint"/>
                        <mxPoint x="725" y="792.7200000000001" as="targetPoint"/>
                    </mxGeometry>
                </mxCell>
                <mxCell id="pZgkCZNhYmgYI2_gVV7H-86" value="UserSchema" style="html=1;verticalAlign=bottom;labelBackgroundColor=none;endArrow=block;endFill=1;exitX=0.922;exitY=0.317;exitDx=0;exitDy=0;exitPerimeter=0;" parent="1" source="pZgkCZNhYmgYI2_gVV7H-78" edge="1">
                    <mxGeometry width="160" relative="1" as="geometry">
                        <mxPoint x="868" y="813" as="sourcePoint"/>
                        <mxPoint x="994" y="813" as="targetPoint"/>
                    </mxGeometry>
                </mxCell>
                <mxCell id="pZgkCZNhYmgYI2_gVV7H-87" value="user" style="html=1;verticalAlign=bottom;labelBackgroundColor=none;endArrow=none;endFill=0;dashed=1;startArrow=block;startFill=0;entryX=-0.133;entryY=0.877;entryDx=0;entryDy=0;entryPerimeter=0;" parent="1" source="pZgkCZNhYmgYI2_gVV7H-77" target="pZgkCZNhYmgYI2_gVV7H-78" edge="1">
                    <mxGeometry width="160" relative="1" as="geometry">
                        <mxPoint x="727" y="858" as="sourcePoint"/>
                        <mxPoint x="858.7800000000002" y="854.23" as="targetPoint"/>
                    </mxGeometry>
                </mxCell>
                <mxCell id="pZgkCZNhYmgYI2_gVV7H-88" value="matchPassword&lt;br&gt;(req.body.password)" style="html=1;verticalAlign=bottom;labelBackgroundColor=none;endArrow=block;endFill=1;entryX=-0.121;entryY=0.179;entryDx=0;entryDy=0;entryPerimeter=0;" parent="1" edge="1">
                    <mxGeometry width="160" relative="1" as="geometry">
                        <mxPoint x="726" y="919.0039999999999" as="sourcePoint"/>
                        <mxPoint x="862.79" y="919.0039999999999" as="targetPoint"/>
                    </mxGeometry>
                </mxCell>
                <mxCell id="pZgkCZNhYmgYI2_gVV7H-89" value="isMatch" style="html=1;verticalAlign=bottom;labelBackgroundColor=none;endArrow=none;endFill=0;dashed=1;startArrow=block;startFill=0;entryX=-0.133;entryY=0.877;entryDx=0;entryDy=0;entryPerimeter=0;exitX=0.9;exitY=0.375;exitDx=0;exitDy=0;exitPerimeter=0;" parent="1" edge="1">
                    <mxGeometry width="160" relative="1" as="geometry">
                        <mxPoint x="725" y="952" as="sourcePoint"/>
                        <mxPoint x="862.6700000000001" y="952.9020000000003" as="targetPoint"/>
                    </mxGeometry>
                </mxCell>
                <mxCell id="pZgkCZNhYmgYI2_gVV7H-92" value="[User exist]" style="text;html=1;strokeColor=none;fillColor=none;align=center;verticalAlign=middle;whiteSpace=wrap;rounded=0;" parent="1" vertex="1">
                    <mxGeometry x="165" y="905" width="69" height="21" as="geometry"/>
                </mxCell>
                <mxCell id="pZgkCZNhYmgYI2_gVV7H-93" value="[Password Valid]" style="text;html=1;strokeColor=none;fillColor=none;align=center;verticalAlign=middle;whiteSpace=wrap;rounded=0;" parent="1" vertex="1">
                    <mxGeometry x="211" y="997" width="121" height="30" as="geometry"/>
                </mxCell>
                <mxCell id="pZgkCZNhYmgYI2_gVV7H-97" value="token" style="html=1;verticalAlign=bottom;labelBackgroundColor=none;endArrow=none;endFill=0;dashed=1;startArrow=block;startFill=0;entryX=-0.133;entryY=0.877;entryDx=0;entryDy=0;entryPerimeter=0;exitX=0.9;exitY=0.375;exitDx=0;exitDy=0;exitPerimeter=0;" parent="1" edge="1">
                    <mxGeometry width="160" relative="1" as="geometry">
                        <mxPoint x="725" y="1054" as="sourcePoint"/>
                        <mxPoint x="862.6700000000001" y="1054.9020000000003" as="targetPoint"/>
                    </mxGeometry>
                </mxCell>
                <mxCell id="pZgkCZNhYmgYI2_gVV7H-98" value="getSignJwtToken()" style="html=1;verticalAlign=bottom;labelBackgroundColor=none;endArrow=block;endFill=1;entryX=-0.121;entryY=0.179;entryDx=0;entryDy=0;entryPerimeter=0;" parent="1" edge="1">
                    <mxGeometry width="160" relative="1" as="geometry">
                        <mxPoint x="726" y="1021.0039999999999" as="sourcePoint"/>
                        <mxPoint x="862.7900000000002" y="1021.0039999999999" as="targetPoint"/>
                    </mxGeometry>
                </mxCell>
                <mxCell id="pZgkCZNhYmgYI2_gVV7H-101" value="response 400," style="html=1;verticalAlign=bottom;labelBackgroundColor=none;endArrow=none;endFill=0;dashed=1;startArrow=block;startFill=0;" parent="1" edge="1">
                    <mxGeometry width="160" relative="1" as="geometry">
                        <mxPoint x="207.99666666666621" y="1122.9999999999998" as="sourcePoint"/>
                        <mxPoint x="711" y="1122.9999999999998" as="targetPoint"/>
                    </mxGeometry>
                </mxCell>
                <mxCell id="pZgkCZNhYmgYI2_gVV7H-102" value="response 400," style="html=1;verticalAlign=bottom;labelBackgroundColor=none;endArrow=none;endFill=0;dashed=1;startArrow=block;startFill=0;" parent="1" edge="1">
                    <mxGeometry width="160" relative="1" as="geometry">
                        <mxPoint x="207.99666666666621" y="1196" as="sourcePoint"/>
                        <mxPoint x="711" y="1196" as="targetPoint"/>
                    </mxGeometry>
                </mxCell>
                <mxCell id="pZgkCZNhYmgYI2_gVV7H-105" value="req.post(&quot;/auth/login&quot;)" style="html=1;verticalAlign=bottom;labelBackgroundColor=none;endArrow=block;endFill=1;" parent="1" edge="1">
                    <mxGeometry width="160" relative="1" as="geometry">
                        <mxPoint x="157" y="1316" as="sourcePoint"/>
                        <mxPoint x="293" y="1316" as="targetPoint"/>
                    </mxGeometry>
                </mxCell>
                <mxCell id="pZgkCZNhYmgYI2_gVV7H-106" value="app.use(&quot;/api/v1/auth&quot;, auth)" style="html=1;verticalAlign=bottom;labelBackgroundColor=none;endArrow=block;endFill=1;exitX=0.957;exitY=0.63;exitDx=0;exitDy=0;exitPerimeter=0;" parent="1" source="pZgkCZNhYmgYI2_gVV7H-103" target="pZgkCZNhYmgYI2_gVV7H-104" edge="1">
                    <mxGeometry width="160" relative="1" as="geometry">
                        <mxPoint x="304" y="1333" as="sourcePoint"/>
                        <mxPoint x="440" y="1333" as="targetPoint"/>
                    </mxGeometry>
                </mxCell>
                <mxCell id="pZgkCZNhYmgYI2_gVV7H-107" value="protect" style="html=1;verticalAlign=bottom;labelBackgroundColor=none;endArrow=block;endFill=1;exitX=1.114;exitY=0.61;exitDx=0;exitDy=0;exitPerimeter=0;" parent="1" source="pZgkCZNhYmgYI2_gVV7H-104" edge="1">
                    <mxGeometry width="160" relative="1" as="geometry">
                        <mxPoint x="468" y="1349" as="sourcePoint"/>
                        <mxPoint x="590" y="1349" as="targetPoint"/>
                    </mxGeometry>
                </mxCell>
                <mxCell id="pZgkCZNhYmgYI2_gVV7H-110" value="[Else]" style="text;html=1;strokeColor=none;fillColor=none;align=center;verticalAlign=middle;whiteSpace=wrap;rounded=0;" parent="1" vertex="1">
                    <mxGeometry x="165" y="1172" width="44" height="21" as="geometry"/>
                </mxCell>
                <mxCell id="pZgkCZNhYmgYI2_gVV7H-111" value="[Else]" style="text;html=1;strokeColor=none;fillColor=none;align=center;verticalAlign=middle;whiteSpace=wrap;rounded=0;" parent="1" vertex="1">
                    <mxGeometry x="219" y="1088" width="44" height="21" as="geometry"/>
                </mxCell>
                <mxCell id="pZgkCZNhYmgYI2_gVV7H-112" value="[Token Valid]" style="text;html=1;strokeColor=none;fillColor=none;align=center;verticalAlign=middle;whiteSpace=wrap;rounded=0;" parent="1" vertex="1">
                    <mxGeometry x="165" y="1413" width="79" height="21" as="geometry"/>
                </mxCell>
                <mxCell id="pZgkCZNhYmgYI2_gVV7H-123" value="findOne(userId)&lt;br&gt;" style="html=1;verticalAlign=bottom;labelBackgroundColor=none;endArrow=block;endFill=1;entryX=-0.121;entryY=0.179;entryDx=0;entryDy=0;entryPerimeter=0;" parent="1" target="pZgkCZNhYmgYI2_gVV7H-120" edge="1">
                    <mxGeometry width="160" relative="1" as="geometry">
                        <mxPoint x="725" y="1425.6040000000003" as="sourcePoint"/>
                        <mxPoint x="725" y="1415.7200000000003" as="targetPoint"/>
                    </mxGeometry>
                </mxCell>
                <mxCell id="pZgkCZNhYmgYI2_gVV7H-124" value="UserSchema" style="html=1;verticalAlign=bottom;labelBackgroundColor=none;endArrow=block;endFill=1;exitX=0.922;exitY=0.317;exitDx=0;exitDy=0;exitPerimeter=0;" parent="1" source="pZgkCZNhYmgYI2_gVV7H-120" edge="1">
                    <mxGeometry width="160" relative="1" as="geometry">
                        <mxPoint x="868" y="1436" as="sourcePoint"/>
                        <mxPoint x="994.0000000000002" y="1436" as="targetPoint"/>
                    </mxGeometry>
                </mxCell>
                <mxCell id="pZgkCZNhYmgYI2_gVV7H-125" value="user" style="html=1;verticalAlign=bottom;labelBackgroundColor=none;endArrow=none;endFill=0;dashed=1;startArrow=block;startFill=0;entryX=-0.133;entryY=0.877;entryDx=0;entryDy=0;entryPerimeter=0;" parent="1" target="pZgkCZNhYmgYI2_gVV7H-120" edge="1">
                    <mxGeometry width="160" relative="1" as="geometry">
                        <mxPoint x="725" y="1478.652" as="sourcePoint"/>
                        <mxPoint x="858.7800000000002" y="1477.23" as="targetPoint"/>
                    </mxGeometry>
                </mxCell>
                <mxCell id="pZgkCZNhYmgYI2_gVV7H-121" value="user" style="html=1;verticalAlign=bottom;labelBackgroundColor=none;endArrow=none;endFill=0;exitX=0.922;exitY=0.317;exitDx=0;exitDy=0;exitPerimeter=0;dashed=1;startArrow=block;startFill=0;" parent="1" edge="1">
                    <mxGeometry width="160" relative="1" as="geometry">
                        <mxPoint x="873" y="1467.0049999999999" as="sourcePoint"/>
                        <mxPoint x="994.7800000000002" y="1467.23" as="targetPoint"/>
                    </mxGeometry>
                </mxCell>
                <mxCell id="pZgkCZNhYmgYI2_gVV7H-126" value="getMe" style="html=1;verticalAlign=bottom;labelBackgroundColor=none;endArrow=block;endFill=1;" parent="1" edge="1">
                    <mxGeometry width="160" relative="1" as="geometry">
                        <mxPoint x="599" y="1413" as="sourcePoint"/>
                        <mxPoint x="715" y="1413" as="targetPoint"/>
                    </mxGeometry>
                </mxCell>
                <mxCell id="pZgkCZNhYmgYI2_gVV7H-127" value="response 200, user data, token" style="html=1;verticalAlign=bottom;labelBackgroundColor=none;endArrow=none;endFill=0;dashed=1;startArrow=block;startFill=0;" parent="1" edge="1">
                    <mxGeometry x="-0.2525" width="160" relative="1" as="geometry">
                        <mxPoint x="208.99666666666644" y="1493" as="sourcePoint"/>
                        <mxPoint x="712" y="1493" as="targetPoint"/>
                        <mxPoint as="offset"/>
                    </mxGeometry>
                </mxCell>
                <mxCell id="pZgkCZNhYmgYI2_gVV7H-128" value="" style="endArrow=none;startArrow=none;endFill=0;startFill=0;endSize=8;html=1;verticalAlign=bottom;dashed=1;labelBackgroundColor=none;dashPattern=10 10;" parent="1" edge="1">
                    <mxGeometry width="160" relative="1" as="geometry">
                        <mxPoint x="164" y="1521" as="sourcePoint"/>
                        <mxPoint x="1047" y="1521" as="targetPoint"/>
                    </mxGeometry>
                </mxCell>
                <mxCell id="pZgkCZNhYmgYI2_gVV7H-129" value="response 400" style="html=1;verticalAlign=bottom;labelBackgroundColor=none;endArrow=none;endFill=0;dashed=1;startArrow=block;startFill=0;" parent="1" edge="1">
                    <mxGeometry x="-0.0008" width="160" relative="1" as="geometry">
                        <mxPoint x="201.99666666666644" y="1569" as="sourcePoint"/>
                        <mxPoint x="584" y="1569" as="targetPoint"/>
                        <mxPoint as="offset"/>
                    </mxGeometry>
                </mxCell>
                <mxCell id="pZgkCZNhYmgYI2_gVV7H-130" value="[Else]" style="text;html=1;strokeColor=none;fillColor=none;align=center;verticalAlign=middle;whiteSpace=wrap;rounded=0;" parent="1" vertex="1">
                    <mxGeometry x="169" y="1529" width="36" height="21" as="geometry"/>
                </mxCell>
                <mxCell id="pZgkCZNhYmgYI2_gVV7H-131" value="[Register]" style="text;html=1;strokeColor=none;fillColor=none;align=center;verticalAlign=middle;whiteSpace=wrap;rounded=0;" parent="1" vertex="1">
                    <mxGeometry x="189" y="242" width="64" height="30" as="geometry"/>
                </mxCell>
                <mxCell id="pZgkCZNhYmgYI2_gVV7H-13" value="" style="shape=umlDestroy;dashed=0;" parent="1" vertex="1">
                    <mxGeometry x="574" y="1671" width="40" height="40" as="geometry"/>
                </mxCell>
                <mxCell id="pZgkCZNhYmgYI2_gVV7H-11" value="" style="shape=umlDestroy;dashed=0;" parent="1" vertex="1">
                    <mxGeometry x="442" y="1673" width="40" height="40" as="geometry"/>
                </mxCell>
                <mxCell id="pZgkCZNhYmgYI2_gVV7H-9" value="" style="shape=umlDestroy;dashed=0;" parent="1" vertex="1">
                    <mxGeometry x="278" y="1669" width="40" height="40" as="geometry"/>
                </mxCell>
                <mxCell id="pZgkCZNhYmgYI2_gVV7H-138" value="[Login]" style="text;html=1;strokeColor=none;fillColor=none;align=center;verticalAlign=middle;whiteSpace=wrap;rounded=0;" parent="1" vertex="1">
                    <mxGeometry x="189" y="692" width="47" height="30" as="geometry"/>
                </mxCell>
                <mxCell id="pZgkCZNhYmgYI2_gVV7H-139" value="[Get Me]" style="text;html=1;strokeColor=none;fillColor=none;align=center;verticalAlign=middle;whiteSpace=wrap;rounded=0;" parent="1" vertex="1">
                    <mxGeometry x="191" y="1266" width="55" height="30" as="geometry"/>
                </mxCell>
            </root>
        </mxGraphModel>
    </diagram>
    <diagram id="FYwUIkcAsQJFdGUOK6RS" name="Google Authen">
        <mxGraphModel dx="1646" dy="1513" grid="0" gridSize="10" guides="1" tooltips="1" connect="1" arrows="1" fold="1" page="1" pageScale="1" pageWidth="850" pageHeight="1100" background="none" math="0" shadow="0">
            <root>
                <mxCell id="0"/>
                <mxCell id="1" parent="0"/>
                <mxCell id="nSxJ-nGAHUv5d9EsKK7Q-1" value="Campground Google Authen" style="shape=umlFrame;whiteSpace=wrap;html=1;width=113;height=33;boundedLbl=1;verticalAlign=middle;align=left;spacingLeft=5;" vertex="1" parent="1">
                    <mxGeometry x="1252" y="87" width="989" height="919" as="geometry"/>
                </mxCell>
                <mxCell id="nSxJ-nGAHUv5d9EsKK7Q-2" value="Alt" style="shape=umlFrame;whiteSpace=wrap;html=1;width=44;height=25;boundedLbl=1;verticalAlign=middle;align=left;spacingLeft=5;" vertex="1" parent="1">
                    <mxGeometry x="1274" y="239" width="942" height="667" as="geometry"/>
                </mxCell>
                <mxCell id="nSxJ-nGAHUv5d9EsKK7Q-3" value="Alt" style="shape=umlFrame;whiteSpace=wrap;html=1;width=44;height=25;boundedLbl=1;verticalAlign=middle;align=left;spacingLeft=5;" vertex="1" parent="1">
                    <mxGeometry x="1295" y="399" width="895" height="485" as="geometry"/>
                </mxCell>
                <mxCell id="nSxJ-nGAHUv5d9EsKK7Q-4" value="Alt" style="shape=umlFrame;whiteSpace=wrap;html=1;width=44;height=25;boundedLbl=1;verticalAlign=middle;align=left;spacingLeft=5;" vertex="1" parent="1">
                    <mxGeometry x="1317" y="512" width="848" height="275" as="geometry"/>
                </mxCell>
                <mxCell id="nSxJ-nGAHUv5d9EsKK7Q-5" value="&amp;lt;&amp;lt;javaScript&amp;gt;&amp;gt;&lt;br&gt;:server" style="shape=umlLifeline;perimeter=lifelinePerimeter;whiteSpace=wrap;html=1;container=1;collapsible=0;recursiveResize=0;outlineConnect=0;" vertex="1" parent="1">
                    <mxGeometry x="1381" y="148" width="102" height="798" as="geometry"/>
                </mxCell>
                <mxCell id="nSxJ-nGAHUv5d9EsKK7Q-6" value="" style="html=1;points=[];perimeter=orthogonalPerimeter;fillColor=#808080;" vertex="1" parent="nSxJ-nGAHUv5d9EsKK7Q-5">
                    <mxGeometry x="45" y="126" width="10" height="61" as="geometry"/>
                </mxCell>
                <mxCell id="nSxJ-nGAHUv5d9EsKK7Q-7" value="response 200, token" style="html=1;verticalAlign=bottom;labelBackgroundColor=none;endArrow=none;endFill=0;dashed=1;startArrow=block;startFill=0;" edge="1" parent="nSxJ-nGAHUv5d9EsKK7Q-5">
                    <mxGeometry width="160" relative="1" as="geometry">
                        <mxPoint x="-44" y="445" as="sourcePoint"/>
                        <mxPoint x="342" y="445" as="targetPoint"/>
                    </mxGeometry>
                </mxCell>
                <mxCell id="nSxJ-nGAHUv5d9EsKK7Q-8" value="response 200, token" style="html=1;verticalAlign=bottom;labelBackgroundColor=none;endArrow=none;endFill=0;dashed=1;startArrow=block;startFill=0;" edge="1" parent="nSxJ-nGAHUv5d9EsKK7Q-5">
                    <mxGeometry width="160" relative="1" as="geometry">
                        <mxPoint x="-44.000000000000455" y="620" as="sourcePoint"/>
                        <mxPoint x="342" y="620" as="targetPoint"/>
                    </mxGeometry>
                </mxCell>
                <mxCell id="nSxJ-nGAHUv5d9EsKK7Q-9" value="[User not Exist]" style="text;html=1;strokeColor=none;fillColor=none;align=center;verticalAlign=middle;whiteSpace=wrap;rounded=0;" vertex="1" parent="nSxJ-nGAHUv5d9EsKK7Q-5">
                    <mxGeometry x="-18" y="460" width="92" height="30" as="geometry"/>
                </mxCell>
                <mxCell id="nSxJ-nGAHUv5d9EsKK7Q-10" value="response 400," style="html=1;verticalAlign=bottom;labelBackgroundColor=none;endArrow=none;endFill=0;dashed=1;startArrow=block;startFill=0;" edge="1" parent="nSxJ-nGAHUv5d9EsKK7Q-5" target="nSxJ-nGAHUv5d9EsKK7Q-14">
                    <mxGeometry width="160" relative="1" as="geometry">
                        <mxPoint x="-46.000000000000455" y="706" as="sourcePoint"/>
                        <mxPoint x="340" y="706" as="targetPoint"/>
                    </mxGeometry>
                </mxCell>
                <mxCell id="nSxJ-nGAHUv5d9EsKK7Q-11" value="&amp;lt;&amp;lt;router&amp;gt;&amp;gt;&lt;br&gt;:auth" style="shape=umlLifeline;perimeter=lifelinePerimeter;whiteSpace=wrap;html=1;container=1;collapsible=0;recursiveResize=0;outlineConnect=0;" vertex="1" parent="1">
                    <mxGeometry x="1544" y="148" width="102" height="796" as="geometry"/>
                </mxCell>
                <mxCell id="nSxJ-nGAHUv5d9EsKK7Q-12" value="" style="html=1;points=[];perimeter=orthogonalPerimeter;fillColor=#808080;" vertex="1" parent="nSxJ-nGAHUv5d9EsKK7Q-11">
                    <mxGeometry x="45" y="147" width="10" height="52" as="geometry"/>
                </mxCell>
                <mxCell id="nSxJ-nGAHUv5d9EsKK7Q-13" value="&amp;lt;&amp;lt;controller&amp;gt;&amp;gt;&lt;br&gt;:auth" style="shape=umlLifeline;perimeter=lifelinePerimeter;whiteSpace=wrap;html=1;container=1;collapsible=0;recursiveResize=0;outlineConnect=0;" vertex="1" parent="1">
                    <mxGeometry x="1676" y="147.5" width="112" height="801.5" as="geometry"/>
                </mxCell>
                <mxCell id="nSxJ-nGAHUv5d9EsKK7Q-14" value="" style="html=1;points=[];perimeter=orthogonalPerimeter;fillColor=#808080;" vertex="1" parent="nSxJ-nGAHUv5d9EsKK7Q-13">
                    <mxGeometry x="51" y="166" width="10" height="553" as="geometry"/>
                </mxCell>
                <mxCell id="nSxJ-nGAHUv5d9EsKK7Q-15" value="" style="endArrow=none;startArrow=none;endFill=0;startFill=0;endSize=8;html=1;verticalAlign=bottom;dashed=1;labelBackgroundColor=none;dashPattern=10 10;" edge="1" parent="nSxJ-nGAHUv5d9EsKK7Q-13">
                    <mxGeometry width="160" relative="1" as="geometry">
                        <mxPoint x="-378" y="664.5" as="sourcePoint"/>
                        <mxPoint x="498" y="664.5" as="targetPoint"/>
                    </mxGeometry>
                </mxCell>
                <mxCell id="nSxJ-nGAHUv5d9EsKK7Q-16" value="&amp;lt;&amp;lt;model&amp;gt;&amp;gt;&lt;br&gt;:User" style="shape=umlLifeline;perimeter=lifelinePerimeter;whiteSpace=wrap;html=1;container=1;collapsible=0;recursiveResize=0;outlineConnect=0;" vertex="1" parent="1">
                    <mxGeometry x="1945" y="148" width="112" height="800" as="geometry"/>
                </mxCell>
                <mxCell id="nSxJ-nGAHUv5d9EsKK7Q-17" value="" style="html=1;points=[];perimeter=orthogonalPerimeter;fillColor=#808080;" vertex="1" parent="nSxJ-nGAHUv5d9EsKK7Q-16">
                    <mxGeometry x="51" y="477" width="10" height="76" as="geometry"/>
                </mxCell>
                <mxCell id="nSxJ-nGAHUv5d9EsKK7Q-18" value="create(googleUserData)" style="html=1;verticalAlign=bottom;labelBackgroundColor=none;endArrow=block;endFill=1;" edge="1" parent="nSxJ-nGAHUv5d9EsKK7Q-16">
                    <mxGeometry width="160" relative="1" as="geometry">
                        <mxPoint x="-208" y="492" as="sourcePoint"/>
                        <mxPoint x="51" y="492" as="targetPoint"/>
                    </mxGeometry>
                </mxCell>
                <mxCell id="nSxJ-nGAHUv5d9EsKK7Q-19" value="UserSchema" style="html=1;verticalAlign=bottom;labelBackgroundColor=none;endArrow=block;endFill=1;exitX=0.922;exitY=0.317;exitDx=0;exitDy=0;exitPerimeter=0;" edge="1" parent="nSxJ-nGAHUv5d9EsKK7Q-16">
                    <mxGeometry width="160" relative="1" as="geometry">
                        <mxPoint x="61" y="503.0920000000001" as="sourcePoint"/>
                        <mxPoint x="182.7800000000002" y="503" as="targetPoint"/>
                    </mxGeometry>
                </mxCell>
                <mxCell id="nSxJ-nGAHUv5d9EsKK7Q-20" value="user" style="html=1;verticalAlign=bottom;labelBackgroundColor=none;endArrow=none;endFill=0;exitX=0.922;exitY=0.317;exitDx=0;exitDy=0;exitPerimeter=0;dashed=1;startArrow=block;startFill=0;" edge="1" parent="nSxJ-nGAHUv5d9EsKK7Q-16">
                    <mxGeometry width="160" relative="1" as="geometry">
                        <mxPoint x="61" y="530.0049999999999" as="sourcePoint"/>
                        <mxPoint x="182.7800000000002" y="530.23" as="targetPoint"/>
                    </mxGeometry>
                </mxCell>
                <mxCell id="nSxJ-nGAHUv5d9EsKK7Q-21" value="" style="html=1;points=[];perimeter=orthogonalPerimeter;fillColor=#808080;" vertex="1" parent="nSxJ-nGAHUv5d9EsKK7Q-16">
                    <mxGeometry x="51" y="576" width="10" height="50" as="geometry"/>
                </mxCell>
                <mxCell id="nSxJ-nGAHUv5d9EsKK7Q-22" value="getSignJwtToken()" style="html=1;verticalAlign=bottom;labelBackgroundColor=none;endArrow=block;endFill=1;exitX=1.05;exitY=0.444;exitDx=0;exitDy=0;exitPerimeter=0;" edge="1" parent="nSxJ-nGAHUv5d9EsKK7Q-16">
                    <mxGeometry width="160" relative="1" as="geometry">
                        <mxPoint x="-207.5" y="588.376" as="sourcePoint"/>
                        <mxPoint x="51" y="587" as="targetPoint"/>
                    </mxGeometry>
                </mxCell>
                <mxCell id="nSxJ-nGAHUv5d9EsKK7Q-23" value="&amp;lt;&amp;lt;mongoDB&amp;gt;&amp;gt;&lt;br&gt;:users" style="shape=umlLifeline;perimeter=lifelinePerimeter;whiteSpace=wrap;html=1;container=1;collapsible=0;recursiveResize=0;outlineConnect=0;" vertex="1" parent="1">
                    <mxGeometry x="2077" y="148" width="112" height="805" as="geometry"/>
                </mxCell>
                <mxCell id="nSxJ-nGAHUv5d9EsKK7Q-24" value="" style="html=1;points=[];perimeter=orthogonalPerimeter;fillColor=#808080;" vertex="1" parent="nSxJ-nGAHUv5d9EsKK7Q-23">
                    <mxGeometry x="-81" y="273" width="10" height="76" as="geometry"/>
                </mxCell>
                <mxCell id="nSxJ-nGAHUv5d9EsKK7Q-25" value="user" style="html=1;verticalAlign=bottom;labelBackgroundColor=none;endArrow=none;endFill=0;exitX=0.922;exitY=0.317;exitDx=0;exitDy=0;exitPerimeter=0;dashed=1;startArrow=block;startFill=0;" edge="1" parent="nSxJ-nGAHUv5d9EsKK7Q-23">
                    <mxGeometry width="160" relative="1" as="geometry">
                        <mxPoint x="-71" y="328.9949999999999" as="sourcePoint"/>
                        <mxPoint x="50.7800000000002" y="329.22" as="targetPoint"/>
                    </mxGeometry>
                </mxCell>
                <mxCell id="nSxJ-nGAHUv5d9EsKK7Q-26" value="" style="html=1;points=[];perimeter=orthogonalPerimeter;fillColor=#808080;" vertex="1" parent="nSxJ-nGAHUv5d9EsKK7Q-23">
                    <mxGeometry x="51" y="284" width="10" height="55" as="geometry"/>
                </mxCell>
                <mxCell id="nSxJ-nGAHUv5d9EsKK7Q-27" value="UserSchema" style="html=1;verticalAlign=bottom;labelBackgroundColor=none;endArrow=block;endFill=1;exitX=0.922;exitY=0.317;exitDx=0;exitDy=0;exitPerimeter=0;" edge="1" parent="nSxJ-nGAHUv5d9EsKK7Q-23" source="nSxJ-nGAHUv5d9EsKK7Q-24">
                    <mxGeometry width="160" relative="1" as="geometry">
                        <mxPoint x="-76" y="297" as="sourcePoint"/>
                        <mxPoint x="50" y="297" as="targetPoint"/>
                    </mxGeometry>
                </mxCell>
                <mxCell id="nSxJ-nGAHUv5d9EsKK7Q-28" value="" style="html=1;points=[];perimeter=orthogonalPerimeter;fillColor=#808080;" vertex="1" parent="nSxJ-nGAHUv5d9EsKK7Q-23">
                    <mxGeometry x="51" y="490" width="10" height="55" as="geometry"/>
                </mxCell>
                <mxCell id="nSxJ-nGAHUv5d9EsKK7Q-29" value="req.post(&quot;/auth/google&quot;)" style="html=1;verticalAlign=bottom;labelBackgroundColor=none;endArrow=block;endFill=1;" edge="1" parent="1">
                    <mxGeometry width="160" relative="1" as="geometry">
                        <mxPoint x="1289" y="294" as="sourcePoint"/>
                        <mxPoint x="1425" y="294" as="targetPoint"/>
                    </mxGeometry>
                </mxCell>
                <mxCell id="nSxJ-nGAHUv5d9EsKK7Q-30" value="app.use(&quot;/api/v1/auth&quot;, auth)" style="html=1;verticalAlign=bottom;labelBackgroundColor=none;endArrow=block;endFill=1;exitX=0.957;exitY=0.63;exitDx=0;exitDy=0;exitPerimeter=0;" edge="1" parent="1" source="nSxJ-nGAHUv5d9EsKK7Q-6" target="nSxJ-nGAHUv5d9EsKK7Q-12">
                    <mxGeometry width="160" relative="1" as="geometry">
                        <mxPoint x="1436" y="311" as="sourcePoint"/>
                        <mxPoint x="1572" y="311" as="targetPoint"/>
                    </mxGeometry>
                </mxCell>
                <mxCell id="nSxJ-nGAHUv5d9EsKK7Q-31" value="loginViaGoogle" style="html=1;verticalAlign=bottom;labelBackgroundColor=none;endArrow=block;endFill=1;exitX=1.114;exitY=0.61;exitDx=0;exitDy=0;exitPerimeter=0;" edge="1" parent="1" source="nSxJ-nGAHUv5d9EsKK7Q-12" target="nSxJ-nGAHUv5d9EsKK7Q-14">
                    <mxGeometry width="160" relative="1" as="geometry">
                        <mxPoint x="1600" y="327" as="sourcePoint"/>
                        <mxPoint x="1753" y="327" as="targetPoint"/>
                    </mxGeometry>
                </mxCell>
                <mxCell id="nSxJ-nGAHUv5d9EsKK7Q-32" value="verifyIdToken(tokenId,&lt;br&gt;&amp;nbsp;appClientId)" style="html=1;verticalAlign=bottom;labelBackgroundColor=none;endArrow=block;endFill=1;entryX=-0.2;entryY=0.304;entryDx=0;entryDy=0;entryPerimeter=0;" edge="1" parent="1" source="nSxJ-nGAHUv5d9EsKK7Q-14" target="nSxJ-nGAHUv5d9EsKK7Q-41">
                    <mxGeometry width="160" relative="1" as="geometry">
                        <mxPoint x="1610.14" y="336.72000000000014" as="sourcePoint"/>
                        <mxPoint x="1858" y="336.72000000000014" as="targetPoint"/>
                    </mxGeometry>
                </mxCell>
                <mxCell id="nSxJ-nGAHUv5d9EsKK7Q-33" value="[Google tokenId Valid]" style="text;html=1;strokeColor=none;fillColor=none;align=center;verticalAlign=middle;whiteSpace=wrap;rounded=0;" vertex="1" parent="1">
                    <mxGeometry x="1344" y="402" width="121" height="30" as="geometry"/>
                </mxCell>
                <mxCell id="nSxJ-nGAHUv5d9EsKK7Q-34" value="[Google tokenId Invalid]" style="text;html=1;strokeColor=none;fillColor=none;align=center;verticalAlign=middle;whiteSpace=wrap;rounded=0;" vertex="1" parent="1">
                    <mxGeometry x="1322" y="821" width="141" height="30" as="geometry"/>
                </mxCell>
                <mxCell id="nSxJ-nGAHUv5d9EsKK7Q-35" value="" style="shape=umlDestroy;dashed=0;" vertex="1" parent="1">
                    <mxGeometry x="1852" y="938" width="40" height="40" as="geometry"/>
                </mxCell>
                <mxCell id="nSxJ-nGAHUv5d9EsKK7Q-36" value="[Login via Google]" style="text;html=1;strokeColor=none;fillColor=none;align=center;verticalAlign=middle;whiteSpace=wrap;rounded=0;" vertex="1" parent="1">
                    <mxGeometry x="1322" y="239" width="100" height="30" as="geometry"/>
                </mxCell>
                <mxCell id="nSxJ-nGAHUv5d9EsKK7Q-37" value="" style="shape=umlDestroy;dashed=0;" vertex="1" parent="1">
                    <mxGeometry x="1712" y="938" width="40" height="40" as="geometry"/>
                </mxCell>
                <mxCell id="nSxJ-nGAHUv5d9EsKK7Q-38" value="" style="shape=umlDestroy;dashed=0;" vertex="1" parent="1">
                    <mxGeometry x="1572" y="923" width="40" height="40" as="geometry"/>
                </mxCell>
                <mxCell id="nSxJ-nGAHUv5d9EsKK7Q-39" value="" style="shape=umlDestroy;dashed=0;" vertex="1" parent="1">
                    <mxGeometry x="1405" y="929" width="40" height="40" as="geometry"/>
                </mxCell>
                <mxCell id="nSxJ-nGAHUv5d9EsKK7Q-40" value="&amp;lt;&amp;lt;OAuth2Client&amp;gt;&amp;gt;&lt;br&gt;:client" style="shape=umlLifeline;perimeter=lifelinePerimeter;whiteSpace=wrap;html=1;container=1;collapsible=0;recursiveResize=0;outlineConnect=0;" vertex="1" parent="1">
                    <mxGeometry x="1816" y="147.5" width="112" height="802.5" as="geometry"/>
                </mxCell>
                <mxCell id="nSxJ-nGAHUv5d9EsKK7Q-41" value="" style="html=1;points=[];perimeter=orthogonalPerimeter;fillColor=#808080;" vertex="1" parent="nSxJ-nGAHUv5d9EsKK7Q-40">
                    <mxGeometry x="51" y="182" width="10" height="57" as="geometry"/>
                </mxCell>
                <mxCell id="nSxJ-nGAHUv5d9EsKK7Q-42" value="user" style="html=1;verticalAlign=bottom;labelBackgroundColor=none;endArrow=none;endFill=0;dashed=1;startArrow=block;startFill=0;" edge="1" parent="nSxJ-nGAHUv5d9EsKK7Q-40" source="nSxJ-nGAHUv5d9EsKK7Q-14">
                    <mxGeometry width="160" relative="1" as="geometry">
                        <mxPoint x="57" y="339.5049999999999" as="sourcePoint"/>
                        <mxPoint x="178.7800000000002" y="339.73" as="targetPoint"/>
                    </mxGeometry>
                </mxCell>
                <mxCell id="nSxJ-nGAHUv5d9EsKK7Q-43" value="token" style="html=1;verticalAlign=bottom;labelBackgroundColor=none;endArrow=none;endFill=0;dashed=1;startArrow=block;startFill=0;" edge="1" parent="nSxJ-nGAHUv5d9EsKK7Q-40">
                    <mxGeometry width="160" relative="1" as="geometry">
                        <mxPoint x="-79" y="425.5" as="sourcePoint"/>
                        <mxPoint x="176.4300000000003" y="425.5" as="targetPoint"/>
                    </mxGeometry>
                </mxCell>
                <mxCell id="nSxJ-nGAHUv5d9EsKK7Q-44" value="user" style="html=1;verticalAlign=bottom;labelBackgroundColor=none;endArrow=none;endFill=0;dashed=1;startArrow=block;startFill=0;" edge="1" parent="nSxJ-nGAHUv5d9EsKK7Q-40">
                    <mxGeometry width="160" relative="1" as="geometry">
                        <mxPoint x="-79" y="541.5" as="sourcePoint"/>
                        <mxPoint x="178.7800000000002" y="541.5" as="targetPoint"/>
                    </mxGeometry>
                </mxCell>
                <mxCell id="nSxJ-nGAHUv5d9EsKK7Q-45" value="user" style="html=1;verticalAlign=bottom;labelBackgroundColor=none;endArrow=none;endFill=0;dashed=1;startArrow=block;startFill=0;" edge="1" parent="nSxJ-nGAHUv5d9EsKK7Q-40">
                    <mxGeometry width="160" relative="1" as="geometry">
                        <mxPoint x="-80" y="612.5" as="sourcePoint"/>
                        <mxPoint x="177.7800000000002" y="612.5" as="targetPoint"/>
                    </mxGeometry>
                </mxCell>
                <mxCell id="nSxJ-nGAHUv5d9EsKK7Q-46" value="isValid, googleUserData" style="html=1;verticalAlign=bottom;labelBackgroundColor=none;endArrow=none;endFill=0;dashed=1;startArrow=block;startFill=0;entryX=-0.269;entryY=0.779;entryDx=0;entryDy=0;entryPerimeter=0;" edge="1" parent="1" source="nSxJ-nGAHUv5d9EsKK7Q-14" target="nSxJ-nGAHUv5d9EsKK7Q-41">
                    <mxGeometry width="160" relative="1" as="geometry">
                        <mxPoint x="1741" y="374.005" as="sourcePoint"/>
                        <mxPoint x="1862.7800000000002" y="374.23" as="targetPoint"/>
                    </mxGeometry>
                </mxCell>
                <mxCell id="nSxJ-nGAHUv5d9EsKK7Q-47" value="findOne(googleId)" style="html=1;verticalAlign=bottom;labelBackgroundColor=none;endArrow=block;endFill=1;" edge="1" parent="1" source="nSxJ-nGAHUv5d9EsKK7Q-14">
                    <mxGeometry width="160" relative="1" as="geometry">
                        <mxPoint x="1740" y="435.004" as="sourcePoint"/>
                        <mxPoint x="1996" y="436" as="targetPoint"/>
                    </mxGeometry>
                </mxCell>
                <mxCell id="nSxJ-nGAHUv5d9EsKK7Q-48" value="[User is Exist]" style="text;html=1;strokeColor=none;fillColor=none;align=center;verticalAlign=middle;whiteSpace=wrap;rounded=0;" vertex="1" parent="1">
                    <mxGeometry x="1366" y="514" width="79" height="30" as="geometry"/>
                </mxCell>
                <mxCell id="nSxJ-nGAHUv5d9EsKK7Q-49" value="" style="html=1;points=[];perimeter=orthogonalPerimeter;fillColor=#808080;" vertex="1" parent="1">
                    <mxGeometry x="1996" y="533" width="10" height="50" as="geometry"/>
                </mxCell>
                <mxCell id="nSxJ-nGAHUv5d9EsKK7Q-50" value="getSignJwtToken()" style="html=1;verticalAlign=bottom;labelBackgroundColor=none;endArrow=block;endFill=1;exitX=1.05;exitY=0.444;exitDx=0;exitDy=0;exitPerimeter=0;" edge="1" parent="1">
                    <mxGeometry width="160" relative="1" as="geometry">
                        <mxPoint x="1737.5" y="545.3760000000002" as="sourcePoint"/>
                        <mxPoint x="1996" y="544" as="targetPoint"/>
                    </mxGeometry>
                </mxCell>
                <mxCell id="nSxJ-nGAHUv5d9EsKK7Q-51" value="" style="endArrow=none;startArrow=none;endFill=0;startFill=0;endSize=8;html=1;verticalAlign=bottom;dashed=1;labelBackgroundColor=none;dashPattern=10 10;" edge="1" parent="1">
                    <mxGeometry width="160" relative="1" as="geometry">
                        <mxPoint x="1327" y="607" as="sourcePoint"/>
                        <mxPoint x="2155" y="607" as="targetPoint"/>
                    </mxGeometry>
                </mxCell>
                <mxCell id="nSxJ-nGAHUv5d9EsKK7Q-52" value="" style="shape=umlDestroy;dashed=0;" vertex="1" parent="1">
                    <mxGeometry x="1978" y="932" width="40" height="40" as="geometry"/>
                </mxCell>
                <mxCell id="nSxJ-nGAHUv5d9EsKK7Q-53" value="" style="shape=umlDestroy;dashed=0;" vertex="1" parent="1">
                    <mxGeometry x="2113" y="938" width="40" height="40" as="geometry"/>
                </mxCell>
            </root>
        </mxGraphModel>
    </diagram>
</mxfile>